<svg xmlns="http://www.w3.org/2000/svg" xmlns:xlink="http://www.w3.org/1999/xlink" version="1.1" x="0px" y="0px" width="75px" height="75px" viewBox="0 0 72 90" enable-background="new 0 0 72 72" xml:space="preserve"><g><path d="M47,1H25.7c-0.2,0-0.4,0-0.6,0.1l-8.1,4c-0.6,0.3-0.9,1.1-0.6,1.7c0.2,0.5,0.7,0.7,1.2,0.7   c0.2,0,0.4,0,0.6-0.1l7.4-3.6c0.3-0.1,0.6-0.2,1-0.2h6.8c0.2,0,0.3,0.1,0.4,0.2l1.9,3.4c0.1,0.2,0,0.5-0.2,0.6   c-1.8,0.8-3.1,2.3-3.1,4.2l0,5.3c0,0.2,0.2,0.4,0.4,0.4H43c0.2,0,0.4-0.2,0.4-0.4l0-5.3c0-1.8-1.3-3.4-3.1-4.2   c-0.2-0.1-0.4-0.4-0.2-0.6L42,3.8c0.1-0.1,0.2-0.2,0.4-0.2H47c0.7,0,1.3-0.6,1.3-1.3C48.2,1.6,47.7,1,47,1z"/><path d="M44.2,20.4c-0.4,0.1-0.7,0.2-1.1,0.2H32.6c-0.4,0-0.7-0.1-1.1-0.2c-6.6,1.8-11.5,7.8-11.5,15v29.7   c0,3.2,2.6,5.8,5.8,5.8h24c3.2,0,5.8-2.6,5.8-5.8V35.5C55.7,28.2,50.8,22.2,44.2,20.4z"/></g></svg>